<svg id="visual" viewBox="0 0 900 600" width="900" height="600" xmlns="http://www.w3.org/2000/svg" xmlns:xlink="http://www.w3.org/1999/xlink" version="1.1"><rect width="900" height="600" fill="#000000"></rect><g><g transform="translate(711 542)"><path d="M0 -65.7L65.7 0L0 65.7L-65.7 0Z" fill="none" stroke="#5E17EB" stroke-width="2"></path></g><g transform="translate(385 117)"><path d="M0 -47L47 0L0 47L-47 0Z" fill="none" stroke="#5E17EB" stroke-width="2"></path></g><g transform="translate(835 235)"><path d="M0 -18L18 0L0 18L-18 0Z" fill="none" stroke="#5E17EB" stroke-width="2"></path></g><g transform="translate(160 585)"><path d="M0 -52L52 0L0 52L-52 0Z" fill="none" stroke="#5E17EB" stroke-width="2"></path></g><g transform="translate(112 229)"><path d="M0 -41L41 0L0 41L-41 0Z" fill="none" stroke="#5E17EB" stroke-width="2"></path></g><g transform="translate(379 551)"><path d="M0 -20L20 0L0 20L-20 0Z" fill="none" stroke="#5E17EB" stroke-width="2"></path></g><g transform="translate(167 83)"><path d="M0 -54L54 0L0 54L-54 0Z" fill="none" stroke="#5E17EB" stroke-width="2"></path></g><g transform="translate(618 324)"><path d="M0 -59L59 0L0 59L-59 0Z" fill="none" stroke="#5E17EB" stroke-width="2"></path></g><g transform="translate(289 280)"><path d="M0 -10L10 0L0 10L-10 0Z" fill="none" stroke="#5E17EB" stroke-width="2"></path></g><g transform="translate(45 17)"><path d="M0 -19L19 0L0 19L-19 0Z" fill="none" stroke="#5E17EB" stroke-width="2"></path></g><g transform="translate(518 93)"><path d="M0 -14L14 0L0 14L-14 0Z" fill="none" stroke="#5E17EB" stroke-width="2"></path></g><g transform="translate(426 274)"><path d="M0 -15L15 0L0 15L-15 0Z" fill="none" stroke="#5E17EB" stroke-width="2"></path></g><g transform="translate(34 363)"><path d="M0 -29L29 0L0 29L-29 0Z" fill="none" stroke="#5E17EB" stroke-width="2"></path></g><g transform="translate(516 517)"><path d="M0 -12L12 0L0 12L-12 0Z" fill="none" stroke="#5E17EB" stroke-width="2"></path></g><g transform="translate(665 138)"><path d="M0 -24L24 0L0 24L-24 0Z" fill="none" stroke="#5E17EB" stroke-width="2"></path></g><g transform="translate(767 12)"><path d="M0 -42L42 0L0 42L-42 0Z" fill="none" stroke="#5E17EB" stroke-width="2"></path></g><g transform="translate(205 398)"><path d="M0 -17L17 0L0 17L-17 0Z" fill="none" stroke="#5E17EB" stroke-width="2"></path></g><g transform="translate(779 410)"><path d="M0 -47L47 0L0 47L-47 0Z" fill="none" stroke="#5E17EB" stroke-width="2"></path></g><g transform="translate(277 8)"><path d="M0 -32L32 0L0 32L-32 0Z" fill="none" stroke="#5E17EB" stroke-width="2"></path></g><g transform="translate(13 547)"><path d="M0 -13L13 0L0 13L-13 0Z" fill="none" stroke="#5E17EB" stroke-width="2"></path></g><g transform="translate(404 420)"><path d="M0 -31L31 0L0 31L-31 0Z" fill="none" stroke="#5E17EB" stroke-width="2"></path></g><g transform="translate(886 561)"><path d="M0 -38L38 0L0 38L-38 0Z" fill="none" stroke="#5E17EB" stroke-width="2"></path></g><g transform="translate(896 58)"><path d="M0 -10L10 0L0 10L-10 0Z" fill="none" stroke="#5E17EB" stroke-width="2"></path></g></g></svg>