<svg id="visual" viewBox="0 0 900 600" width="900" height="600" xmlns="http://www.w3.org/2000/svg" xmlns:xlink="http://www.w3.org/1999/xlink" version="1.1"><rect width="900" height="600" fill="#000000"></rect><g><g transform="translate(710 339)"><path d="M0 -65.7L65.7 0L0 65.7L-65.7 0Z" fill="none" stroke="#5E17EB" stroke-width="2"></path></g><g transform="translate(617 549)"><path d="M0 -25L25 0L0 25L-25 0Z" fill="none" stroke="#5E17EB" stroke-width="2"></path></g><g transform="translate(748 212)"><path d="M0 -43L43 0L0 43L-43 0Z" fill="none" stroke="#5E17EB" stroke-width="2"></path></g><g transform="translate(216 342)"><path d="M0 -17L17 0L0 17L-17 0Z" fill="none" stroke="#5E17EB" stroke-width="2"></path></g><g transform="translate(390 38)"><path d="M0 -20L20 0L0 20L-20 0Z" fill="none" stroke="#5E17EB" stroke-width="2"></path></g><g transform="translate(416 431)"><path d="M0 -14L14 0L0 14L-14 0Z" fill="none" stroke="#5E17EB" stroke-width="2"></path></g><g transform="translate(43 410)"><path d="M0 -63L63 0L0 63L-63 0Z" fill="none" stroke="#5E17EB" stroke-width="2"></path></g><g transform="translate(217 519)"><path d="M0 -35L35 0L0 35L-35 0Z" fill="none" stroke="#5E17EB" stroke-width="2"></path></g><g transform="translate(100 66)"><path d="M0 -43L43 0L0 43L-43 0Z" fill="none" stroke="#5E17EB" stroke-width="2"></path></g><g transform="translate(783 576)"><path d="M0 -46L46 0L0 46L-46 0Z" fill="none" stroke="#5E17EB" stroke-width="2"></path></g><g transform="translate(594 140)"><path d="M0 -45L45 0L0 45L-45 0Z" fill="none" stroke="#5E17EB" stroke-width="2"></path></g><g transform="translate(854 121)"><path d="M0 -57L57 0L0 57L-57 0Z" fill="none" stroke="#5E17EB" stroke-width="2"></path></g><g transform="translate(594 410)"><path d="M0 -32L32 0L0 32L-32 0Z" fill="none" stroke="#5E17EB" stroke-width="2"></path></g><g transform="translate(64 578)"><path d="M0 -25L25 0L0 25L-25 0Z" fill="none" stroke="#5E17EB" stroke-width="2"></path></g><g transform="translate(346 591)"><path d="M0 -29L29 0L0 29L-29 0Z" fill="none" stroke="#5E17EB" stroke-width="2"></path></g><g transform="translate(263 114)"><path d="M0 -55L55 0L0 55L-55 0Z" fill="none" stroke="#5E17EB" stroke-width="2"></path></g><g transform="translate(892 403)"><path d="M0 -47L47 0L0 47L-47 0Z" fill="none" stroke="#5E17EB" stroke-width="2"></path></g><g transform="translate(77 251)"><path d="M0 -64L64 0L0 64L-64 0Z" fill="none" stroke="#5E17EB" stroke-width="2"></path></g><g transform="translate(328 272)"><path d="M0 -55L55 0L0 55L-55 0Z" fill="none" stroke="#5E17EB" stroke-width="2"></path></g><g transform="translate(527 26)"><path d="M0 -23L23 0L0 23L-23 0Z" fill="none" stroke="#5E17EB" stroke-width="2"></path></g><g transform="translate(476 269)"><path d="M0 -22L22 0L0 22L-22 0Z" fill="none" stroke="#5E17EB" stroke-width="2"></path></g><g transform="translate(482 584)"><path d="M0 -54L54 0L0 54L-54 0Z" fill="none" stroke="#5E17EB" stroke-width="2"></path></g><g transform="translate(741 19)"><path d="M0 -9L9 0L0 9L-9 0Z" fill="none" stroke="#5E17EB" stroke-width="2"></path></g><g transform="translate(889 266)"><path d="M0 -54L54 0L0 54L-54 0Z" fill="none" stroke="#5E17EB" stroke-width="2"></path></g></g></svg>